# xmcd CD database file
#
# Track frame offsets:
#	150
#	18038
#	33475
#	49595
#	65681
#	89741
#	106374
#	119363
#	137539
#	151533
#	177310
#	199742
#	215015
#	235063
#	250694
#
# Disc length: 3560 seconds
#
# Revision: 0
# Processed by: cddbd v1.4PL0 Copyright (c) Steve Scherf et al.
# Submitted via: CDex 1.51
#
DISCID=c60de60f
DTITLE=Bubble Trouble - Bad Influence
DYEAR=1900
DGENRE=Blues
TTITLE0=Better Days
TTITLE1=Nothing but you
TTITLE2=Jungle in my heart
TTITLE3=Higher and higher
TTITLE4=Bad Influence
TTITLE5=I´ve got the music in me
TTITLE6=You gotta know
TTITLE7=On the move
TTITLE8=Diggin on James Brown
TTITLE9=Story of the Blues
TTITLE10=Spingtime
TTITLE11=Why did you do it
TTITLE12=I don´t know
TTITLE13=Tell Mama
TTITLE14=B´Movie box car blues
EXTD=
EXTT0=
EXTT1=
EXTT2=
EXTT3=
EXTT4=
EXTT5=
EXTT6=
EXTT7=
EXTT8=
EXTT9=
EXTT10=
EXTT11=
EXTT12=
EXTT13=
EXTT14=
PLAYORDER=
